# xmcd
#
# Track frame offsets: 
#        150
#        43342
#        91071
#        112721
#        134375
#        157787
#        175715
#        221716
#
# Disc length: 3458 seconds
#
# Revision: 1
# Processed by: cddbd v1.5.2PL0 Copyright (c) Steve Scherf et al.
# Submitted via: ExactAudioCopy v0.99pb4
#
DISCID=5e0d8008
DTITLE=David Sedaris - Schöner wird's nicht - CD4
DYEAR=2008
DGENRE=Hörbuch
TTITLE0=April in Paris - Teil 1
TTITLE1=April in Paris - Teil 2
TTITLE2=Crybaby (amerikanisch) - Teil 1
TTITLE3=Crybaby (amerikanisch) - Teil 2
TTITLE4=Crybaby (amerikanisch) - Teil 3
TTITLE5=Crybaby (amerikanisch) - Teil 4
TTITLE6=Treue Seele - Teil 1
TTITLE7=Treue Seele - Teil 2
EXTD=
EXTT0=
EXTT1=
EXTT2=
EXTT3=
EXTT4=
EXTT5=
EXTT6=
EXTT7=
PLAYORDER=
